<?xml version="1.0" encoding="UTF-8"?>
<svg xmlns="http://www.w3.org/2000/svg" width="256" height="256" viewBox="0 0 256 256">
  <defs>
    <linearGradient id="g" x1="0" y1="0" x2="1" y2="1">
      <stop offset="0%" stop-color="#0EA5A4"/>
      <stop offset="100%" stop-color="#0891B2"/>
    </linearGradient>
  </defs>
  <rect width="256" height="256" rx="40" ry="40" fill="#E6F6F9"/>
  <g transform="translate(28,24)">
    <path d="M100 16c-16 0-28 12-28 28v6c-14 2-24 14-24 28 0 6 2 12 5 17-11 6-17 18-17 30 0 18 14 32 32 32h20v-8c0-9 7-16 16-16s16 7 16 16v8h20c18 0 32-14 32-32 0-12-6-24-17-30 3-5 5-11 5-17 0-14-10-26-24-28v-6c0-16-12-28-28-28h-8z" fill="url(#g)"/>
    <path d="M96 24v24M120 24v24M84 60c-8 4-12 10-12 18 0 10 8 18 18 18h12M140 60c8 4 12 10 12 18 0 10-8 18-18 18h-12" fill="none" stroke="#ffffff" stroke-width="8" stroke-linecap="round"/>
    <path d="M112 144v16M96 144v16" stroke="#ffffff" stroke-width="8" stroke-linecap="round"/>
  </g>
</svg>

